<?xml version="1.0" encoding="utf-8"?>
<!-- Generator: Adobe Illustrator 17.0.0, SVG Export Plug-In . SVG Version: 6.00 Build 0)  -->
<!DOCTYPE svg PUBLIC "-//W3C//DTD SVG 1.1//EN" "http://www.w3.org/Graphics/SVG/1.1/DTD/svg11.dtd" [
	<!ENTITY ns_flows "http://ns.adobe.com/Flows/1.0/">
	<!ENTITY ns_extend "http://ns.adobe.com/Extensibility/1.0/">
	<!ENTITY ns_ai "http://ns.adobe.com/AdobeIllustrator/10.0/">
	<!ENTITY ns_graphs "http://ns.adobe.com/Graphs/1.0/">
]>
<svg version="1.1" id="Layer_1" xmlns:x="&ns_extend;" xmlns:i="&ns_ai;" xmlns:graph="&ns_graphs;"
	 xmlns="http://www.w3.org/2000/svg" xmlns:xlink="http://www.w3.org/1999/xlink" xmlns:a="http://ns.adobe.com/AdobeSVGViewerExtensions/3.0/"
	 x="0px" y="0px" width="206.5px" height="200px" viewBox="0 0 206.5 200" style="enable-background:new 0 0 206.5 200;"
	 xml:space="preserve">
<style type="text/css">
	.st0{fill:none;stroke:#89CBD8;stroke-miterlimit:10;}
	.st1{fill:#89CBD8;}
	.st2{fill:none;stroke:#C2C2C2;stroke-miterlimit:10;}
	.st3{fill:#C2C2C2;}
	.st4{fill:none;stroke:#C2C2C2;stroke-width:2;stroke-miterlimit:10;}
	.st5{fill:none;stroke:#89CBD8;stroke-width:2;stroke-miterlimit:10;}
</style>
<g>
	<circle class="st2" cx="103.2" cy="100" r="35.2"/>
	<g>
		<path class="st3" d="M115.6,85.4V92H89.9v-6.6H115.6 M117.6,83.4H87.9V94h29.8V83.4L117.6,83.4z"/>
	</g>
	<g>
		<path class="st3" d="M115.6,98.2v6.6h-6.9v-6.6H115.6 M117.6,96.2h-10.9v10.6h10.9V96.2L117.6,96.2z"/>
	</g>
	<g>
		<path class="st3" d="M102.5,98.2v19.5H89.9V98.2H102.5 M104.5,96.2H87.9v23.5h16.6V96.2L104.5,96.2z"/>
	</g>
	<g>
		<path class="st3" d="M115.6,111.1v6.6h-6.9v-6.6H115.6 M117.6,109.1h-10.9v10.6h10.9V109.1L117.6,109.1z"/>
	</g>
</g>
</svg>
