<?xml version="1.0" encoding="utf-8"?>
<!-- Generator: Adobe Illustrator 17.0.0, SVG Export Plug-In . SVG Version: 6.00 Build 0)  -->
<!DOCTYPE svg PUBLIC "-//W3C//DTD SVG 1.1//EN" "http://www.w3.org/Graphics/SVG/1.1/DTD/svg11.dtd" [
	<!ENTITY ns_flows "http://ns.adobe.com/Flows/1.0/">
	<!ENTITY ns_extend "http://ns.adobe.com/Extensibility/1.0/">
	<!ENTITY ns_ai "http://ns.adobe.com/AdobeIllustrator/10.0/">
	<!ENTITY ns_graphs "http://ns.adobe.com/Graphs/1.0/">
]>
<svg version="1.1" id="Layer_1" xmlns:x="&ns_extend;" xmlns:i="&ns_ai;" xmlns:graph="&ns_graphs;"
	 xmlns="http://www.w3.org/2000/svg" xmlns:xlink="http://www.w3.org/1999/xlink" xmlns:a="http://ns.adobe.com/AdobeSVGViewerExtensions/3.0/"
	 x="0px" y="0px" width="206.5px" height="200px" viewBox="0 0 206.5 200" style="enable-background:new 0 0 206.5 200;"
	 xml:space="preserve">
<style type="text/css">
	.st0{fill:none;stroke:#89CBD8;stroke-miterlimit:10;}
	.st1{fill:#89CBD8;}
	.st2{fill:none;stroke:#C2C2C2;stroke-miterlimit:10;}
	.st3{fill:#C2C2C2;}
	.st4{fill:none;stroke:#C2C2C2;stroke-width:2;stroke-miterlimit:10;}
	.st5{fill:none;stroke:#89CBD8;stroke-width:2;stroke-miterlimit:10;}
</style>
<g>
	<circle class="st0" cx="103.2" cy="100" r="35.2"/>
	<g>
		<path class="st1" d="M120,88.4V92H86.2v-3.6H120 M122,86.4H84.2V94H122V86.4L122,86.4z"/>
	</g>
	<g>
		<path class="st1" d="M120,97.9v3.6H86.2v-3.6H120 M122,95.9H84.2v7.6H122V95.9L122,95.9z"/>
	</g>
	<g>
		<path class="st1" d="M120,107.4v3.6H86.2v-3.6H120 M122,105.4H84.2v7.6H122V105.4L122,105.4z"/>
	</g>
	<g>
		<path class="st1" d="M94.4,79.2l2.1,2.1l-2.1,2.1l-2.1-2.1L94.4,79.2 M94.4,76.4l-5,5l5,5l5-5L94.4,76.4L94.4,76.4z"/>
	</g>
	<g>
		
			<rect x="107.2" y="89.1" transform="matrix(0.7071 -0.7071 0.7071 0.7071 -32.0729 102.9443)" class="st1" width="2.1" height="2.1"/>
	</g>
	<g>
		
			<rect x="100.8" y="98.6" transform="matrix(0.7071 -0.7071 0.7071 0.7071 -40.6484 101.241)" class="st1" width="2.1" height="2.1"/>
	</g>
	<g>
		
			<rect x="113" y="108.1" transform="matrix(0.7071 -0.7071 0.7071 0.7071 -43.8055 112.6193)" class="st1" width="2.1" height="2.1"/>
	</g>
	<line class="st5" x1="94.4" y1="84.4" x2="94.4" y2="117.1"/>
</g>
</svg>
